<svg fill="none" height="128" viewBox="0 0 128 128" width="128" xmlns="http://www.w3.org/2000/svg" xmlns:xlink="http://www.w3.org/1999/xlink"><filter id="a" color-interpolation-filters="sRGB" filterUnits="userSpaceOnUse" height="25.8345" width="97.2159" x="12.3893" y="26.0651"><feFlood flood-opacity="0" result="BackgroundImageFix"/><feBlend in="SourceGraphic" in2="BackgroundImageFix" mode="normal" result="shape"/><feColorMatrix in="SourceAlpha" result="hardAlpha" type="matrix" values="0 0 0 0 0 0 0 0 0 0 0 0 0 0 0 0 0 0 127 0"/><feOffset dy="-2.32938"/><feComposite in2="hardAlpha" k2="-1" k3="1" operator="arithmetic"/><feColorMatrix type="matrix" values="0 0 0 0 0.796078 0 0 0 0 0.803922 0 0 0 0 0.839216 0 0 0 1 0"/><feBlend in2="shape" mode="normal" result="effect1_innerShadow"/></filter><filter id="b" color-interpolation-filters="sRGB" filterUnits="userSpaceOnUse" height="22.4787" width="20.0925" x="74.1479" y="19.8047"><feFlood flood-opacity="0" result="BackgroundImageFix"/><feBlend in="SourceGraphic" in2="BackgroundImageFix" mode="normal" result="shape"/><feColorMatrix in="SourceAlpha" result="hardAlpha" type="matrix" values="0 0 0 0 0 0 0 0 0 0 0 0 0 0 0 0 0 0 127 0"/><feOffset dx="-1.13304" dy="-6.11841"/><feComposite in2="hardAlpha" k2="-1" k3="1" operator="arithmetic"/><feColorMatrix type="matrix" values="0 0 0 0 0.796078 0 0 0 0 0.804243 0 0 0 0 0.839216 0 0 0 1 0"/><feBlend in2="shape" mode="normal" result="effect1_innerShadow"/></filter><radialGradient id="c" cx="0" cy="0" gradientTransform="matrix(0 49.0901 -51.1356 0 64.2837 42.632)" gradientUnits="userSpaceOnUse" r="1"><stop offset="0" stop-color="#e54a48"/><stop offset=".0001" stop-color="#ff6a68"/><stop offset="1" stop-color="#e54a48"/></radialGradient><linearGradient id="d"><stop offset="0" stop-color="#874727"/><stop offset="1" stop-color="#6e3c23"/></linearGradient><radialGradient id="e" cx="0" cy="0" gradientTransform="matrix(0 10.1595 -10.1638 0 91.9919 59.1954)" gradientUnits="userSpaceOnUse" r="1" xlink:href="#d"/><radialGradient id="f" cx="0" cy="0" gradientTransform="matrix(0 10.1595 -10.1638 0 39.2342 59.1954)" gradientUnits="userSpaceOnUse" r="1" xlink:href="#d"/><clipPath id="g"><path d="m0 0h128v128h-128z"/></clipPath><g clip-path="url(#g)"><circle cx="64.2836" cy="55.7508" fill="#6e3c23" r="51.4067" stroke="#6e3c23" stroke-width="2.52052"/><ellipse cx="64.2837" cy="53.5649" fill="url(#c)" rx="50.334" ry="48.3206"/><path d="m65.3783 15.5807c1.8033-2.9664 3.989-4.5119 7.5723-5.4778 1.252-.33752 2.5904-.10913 3.6922.5746 3.5618 2.2103 5.6022 4.3269 6.7341 8.6765.4808 1.8478-.3114 3.7584-1.7899 4.9666l-.3494.2856c-2.351 1.9213-5.7244 1.3846-8.2194-.3455-1.6487-1.1432-3.2408-1.7161-4.968-2.2709-2.7565-.8853-4.1757-3.9351-2.6719-6.4091z" fill="#fff" stroke="#6e3c23" stroke-linecap="round" stroke-linejoin="round" stroke-width="2.03947"/><path d="m72.6286 17.5101c4.5651 3.9135 8.0628 4.2456 10.9352 11.4776" stroke="#cbcdd6" stroke-linecap="round" stroke-linejoin="round" stroke-width="2.03947"/><path d="m101.448 13.8626c-2.0275-3.3348-4.4846-5.0722-8.513-6.15809-1.4075-.3794-2.912-.12264-4.1506.64599-4.0042 2.4848-6.298 4.8642-7.5704 9.754-.5405 2.0773.3501 4.2251 2.0121 5.5834l.3929.3211c2.6429 2.1599 6.4352 1.5565 9.2401-.3885 1.8533-1.2852 3.6432-1.9292 5.5849-2.5528 3.099-.9954 4.694-4.4239 3.004-7.2051z" fill="#fff" stroke="#6e3c23" stroke-linecap="round" stroke-linejoin="round" stroke-width="2.29274"/><path d="m93.297 16.0315c-5.1319 4.3996-9.064 4.7729-12.2931 12.903" stroke="#cbcdd6" stroke-linecap="round" stroke-linejoin="round" stroke-width="2.29274"/><path d="m16.696 47.5929c34.7205-12.9035 54.1219-16.7468 88.604-17.2222" stroke="#6e3c23" stroke-linecap="round" stroke-width="14.2763"/><g filter="url(#a)"><path d="m16.696 47.5929c34.7205-12.9035 54.1219-16.7468 88.604-17.2222" stroke="#fff" stroke-linecap="round" stroke-width="8.6111"/></g><g stroke="#6e3c23"><path d="m25.5337 38.9818-1.8129 11.1037" stroke-linecap="round" stroke-width="2.49269"/><path d="m39.3567 34.4496-1.8128 11.1038" stroke-linecap="round" stroke-width="2.49269"/><path d="m54.7661 30.8239-1.8129 10.1973" stroke-linecap="round" stroke-width="2.49269"/><path d="m70.1754 28.3312-1.8129 9.7441" stroke-linecap="round" stroke-width="2.49269"/><path d="m99.8611 26.0652-1.8129 9.0643" stroke-linecap="round" stroke-width="2.49269"/></g><g filter="url(#b)"><rect fill="#fff" height="17.2222" rx="3.85233" transform="matrix(.9932737 -.11579012 .11579012 .9932737 -2.19028 8.956329)" width="14.5029" x="75.9944" y="23.3305"/></g><rect height="19.4883" rx="4.98537" stroke="#6e3c23" stroke-width="2.26608" transform="matrix(.9932737 -.11579012 .11579012 .9932737 -2.083603 8.804139)" width="16.769" x="74.7378" y="22.3362"/><ellipse cx="91.9919" cy="61.0044" fill="url(#e)" rx="8.35397" ry="8.35041"/><ellipse cx="39.2342" cy="61.0044" fill="url(#f)" rx="8.35397" ry="8.35041"/><path clip-rule="evenodd" d="m53.0987 69.758c.7992-.5064 1.8574-.2705 2.3658.5265.0004.0006.0011.0017.0022.0033.0034.0053.0104.0159.0208.0315.0209.0312.0557.0822.1041.1502.0969.1363.2476.3397.4496.5879.4058.4985 1.0089 1.1656 1.789 1.8301 1.5732 1.3403 3.7502 2.5764 6.4211 2.5764s4.848-1.2361 6.4211-2.5764c.7801-.6645 1.3832-1.3316 1.7891-1.8301.202-.2482.3527-.4516.4496-.5879.0484-.068.0832-.119.1041-.1502.0104-.0156.0174-.0262.0208-.0315.0009-.0014.0016-.0025.002-.0031.5084-.7972 1.5667-1.0332 2.366-.5267.8006.5072 1.0382 1.5671.5307 2.3673l-1.4495-.9184c1.4495.9184 1.4492.919 1.4488.9196l-.0008.0013-.0019.003-.0049.0077c-.0038.0058-.0085.0131-.0141.0217-.0113.0174-.0264.0403-.0453.0685-.0377.0563-.0906.1336-.1584.2288-.1354.1904-.3309.4536-.5847.7653-.5057.6213-1.2524 1.4474-2.2249 2.276-1.9322 1.646-4.8721 3.3961-8.6477 3.3961s-6.7155-1.7501-8.6476-3.3961c-.9726-.8286-1.7192-1.6547-2.225-2.276-.2537-.3117-.4493-.5749-.5847-.7653-.0677-.0952-.1206-.1725-.1583-.2288-.0189-.0282-.034-.0511-.0453-.0685-.0056-.0086-.0103-.0159-.0141-.0217l-.0049-.0077-.0019-.003-.0008-.0013c-.0004-.0006-.0008-.0012 1.4488-.9196l-1.4496.9184c-.5074-.8002-.2698-1.8601.5308-2.3673z" fill="#6e3c23" fill-rule="evenodd"/><path d="m43.6469 73.7756-2.6866 4.1729" stroke="#fff" stroke-linecap="round" stroke-width="2.19997"/><path d="m85.6331 73.7756 2.6867 4.1729" stroke="#fff" stroke-linecap="round" stroke-width="2.19997"/><path d="m38.0294 73.7756-2.6866 4.1729" stroke="#fff" stroke-linecap="round" stroke-width="2.19997"/><path d="m91.2506 73.7757 2.6867 4.173" stroke="#fff" stroke-linecap="round" stroke-width="2.19997"/><path d="m30.4473 79.246s-3.1372 4.8353-4.3283 5.7665c-1.9011 1.4864-4.577 2.9747-7.5043 2.342-3.9259-.8485-5.3952-3.8067-6.28-5.5881v-.0001c-.0468-.0941-.0919-.1849-.1357-.272-.4953-.9855-.7851-1.4694-1.1056-1.77-.2775-.2603-.9063-.4607-1.29229-.3618l-.00031.0001c-.08018.0206-.49981.1281-1.19356.6946-.72781.5942-1.52095 1.5292-2.1344 2.7982-1.19437 2.4707-1.75797 6.3252.45381 11.4791 3.35535 7.8185 11.48745 10.6805 16.85355 10.1095 4.8194-.513 8.786-3.739 10.8543-6.1637 1.1287-1.323 2.9045-3.0395 4.1537-4.517.8122-.9606 2.4156-3.2059 2.4156-3.2059s-1.9678 6.2959-4.6108 9.3938c-2.2854 2.6788-6.8021 6.4418-12.5403 7.0528-6.2599.667-15.60634-2.6-19.4918-11.6542-4.964753-11.5689 2.13037-18.5463 5.25647-18.5734 2.88403-.025 3.79823 1.7989 4.76963 3.7367.9128 1.8209 1.876 3.7425 4.5715 4.3251 2.8355.6129 5.2871-2.2692 8.4437-4.2823.5934-.6639 2.8451-1.3099 2.8451-1.3099z" fill="#6e3c23"/><path d="m30.4473 79.246s-3.1372 4.8353-4.3283 5.7666c-1.9011 1.4863-4.577 2.9747-7.5043 2.3419-3.9259-.8485-5.3952-3.8067-6.28-5.588v-.0002c-.0468-.0941-.0919-.1849-.1356-.272-.4954-.9855-.7852-1.4694-1.1057-1.77-.2775-.2603-.9063-.4607-1.29226-.3618l-.00031.0001c-.08018.0206-.49982.1281-1.19357.6946-.72781.5942-1.52094 1.5292-2.13439 2.7982-1.19438 2.4707-1.75798 6.3252.4538 11.4792 3.35543 7.8184 11.48753 10.6804 16.85353 10.1094 4.8195-.513 8.786-3.739 10.8543-6.1637 1.1287-1.323 2.9045-3.0395 4.1537-4.517.8122-.9606 2.4156-3.2059 2.4156-3.2059z" fill="#e54a48"/><path d="m36.619 87.287s-1.1786 5.6421-1.9529 6.9407c-1.2358 2.0728-3.1933 4.4272-6.1515 4.8947-3.9673.627-6.406-1.6007-7.8745-2.9421l-.0001-.0001c-.0776-.0709-.1525-.1393-.2248-.2046-.8179-.74-1.2629-1.0866-1.6704-1.2511-.3528-.1425-1.0115-.1022-1.3357.1295l-.0002.0002c-.0674.0481-.4198.3-.8621 1.0788-.464.817-.8658 1.9753-.9794 3.3803-.2212 2.7357.6457 6.5327 4.5699 10.5397 5.9533 6.079 14.5702 5.81 19.3675 3.339 4.3087-2.219 6.8418-6.661 7.8947-9.669.5745-1.641 1.6104-3.8832 2.2414-5.7121.4104-1.1892 1.0944-3.862 1.0944-3.862s.4394 6.5811-.906 10.4251c-1.1634 3.323-4.0155 8.464-9.1456 11.107-5.5964 2.882-15.4918 3.213-22.3856-3.826-8.8087-8.995-4.7132-18.0638-1.808-19.2184 2.6802-1.0651 4.1915.3053 5.7973 1.7614 1.509 1.3682 3.1013 2.8121 5.8253 2.3816 2.8654-.4528 4.1103-4.0259 6.3266-7.0434.3134-.8334 2.1797-2.2492 2.1797-2.2492z" fill="#6e3c23"/><path d="m36.619 87.287s-1.1786 5.6421-1.9529 6.9407c-1.2358 2.0728-3.1933 4.4272-6.1515 4.8947-3.9673.627-6.406-1.6007-7.8745-2.9421l-.0001-.0001c-.0776-.0709-.1525-.1393-.2248-.2046-.8179-.74-1.2629-1.0866-1.6704-1.2511-.3528-.1425-1.0115-.1022-1.3357.1295l-.0002.0002c-.0674.0481-.4198.3-.8621 1.0788-.464.817-.8658 1.9753-.9794 3.3803-.2212 2.7357.6457 6.5327 4.5699 10.5397 5.9533 6.079 14.5702 5.81 19.3675 3.339 4.3087-2.219 6.8418-6.661 7.8947-9.669.5745-1.641 1.6104-3.8832 2.2414-5.7121.4104-1.1892 1.0944-3.862 1.0944-3.862z" fill="#e54a48"/><path d="m49.3167 92.2829s-.2884 5.7566-.8516 7.1597c-.899 2.2394-2.4672 4.8694-5.317 5.7904-3.8218 1.235-6.5768-.587-8.2358-1.684h-.0001c-.0877-.058-.1723-.114-.2538-.167-.9229-.604-1.4163-.877-1.8444-.977-.3706-.086-1.0151.056-1.2994.336h-.0002c-.0591.058-.3681.361-.6841 1.199-.3315.88-.5486 2.086-.4427 3.492.2061 2.736 1.6522 6.354 6.151 9.703 6.8249 5.08 15.2955 3.477 19.651.291 3.9118-2.862 5.7246-7.643 6.2977-10.778.3128-1.71.9879-4.086 1.3273-5.991.2208-1.2382.4815-3.9848.4815-3.9848s1.456 6.4338.7236 10.4388c-.6332 3.464-2.6527 8.985-7.3102 12.393-5.081 3.716-14.8051 5.579-22.7082-.304-10.0983-7.518-7.4606-17.113-4.7699-18.705 2.4823-1.468 4.1881-.349 6.0005.84 1.7031 1.118 3.5003 2.297 6.1244 1.448 2.7604-.892 3.4354-4.6148 5.1563-7.9398.1802-.8719 1.8041-2.5603 1.8041-2.5603z" fill="#6e3c23"/><path d="m49.3167 92.2829s-.2884 5.7566-.8516 7.1597c-.899 2.2394-2.4672 4.8694-5.317 5.7904-3.8218 1.235-6.5768-.587-8.2358-1.684h-.0001c-.0877-.058-.1723-.114-.2538-.167-.9229-.604-1.4163-.877-1.8444-.977-.3706-.086-1.0151.056-1.2994.336h-.0002c-.0591.058-.3681.361-.6841 1.199-.3315.88-.5486 2.086-.4427 3.492.2061 2.736 1.6522 6.354 6.151 9.703 6.8249 5.08 15.2955 3.477 19.651.291 3.9118-2.862 5.7246-7.643 6.2977-10.778.3128-1.71.9879-4.086 1.3273-5.991.2208-1.2382.4815-3.9848.4815-3.9848z" fill="#e54a48"/><path d="m98.1022 79.246s3.1368 4.8353 4.3288 5.7665c1.901 1.4864 4.576 2.9747 7.504 2.342 3.926-.8485 5.395-3.8067 6.28-5.5881v-.0001c.047-.0941.092-.1849.135-.272.496-.9855.786-1.4694 1.106-1.77.278-.2603.906-.4607 1.292-.3618l.001.0001c.08.0206.5.1281 1.193.6946.728.5942 1.521 1.5292 2.135 2.7982 1.194 2.4707 1.758 6.3252-.454 11.4791-3.356 7.8185-11.488 10.6805-16.854 10.1095-4.8191-.513-8.7857-3.739-10.854-6.1637-1.1287-1.323-2.9045-3.0395-4.1537-4.517-.8122-.9606-2.4156-3.2059-2.4156-3.2059s1.9678 6.2959 4.6108 9.3938c2.2854 2.6788 6.8021 6.4418 12.5405 7.0528 6.26.667 15.606-2.6 19.492-11.6542 4.964-11.5689-2.131-18.5463-5.257-18.5734-2.884-.025-3.798 1.7989-4.769 3.7367-.913 1.8209-1.876 3.7425-4.572 4.3251-2.836.6129-5.287-2.2692-8.444-4.2823-.593-.6639-2.8448-1.3099-2.8448-1.3099z" fill="#6e3c23"/><path d="m98.1022 79.246s3.1368 4.8353 4.3288 5.7666c1.901 1.4863 4.577 2.9747 7.504 2.3419 3.926-.8485 5.395-3.8067 6.28-5.588v-.0002c.047-.0941.092-.1849.136-.272.495-.9855.785-1.4694 1.105-1.77.278-.2603.906-.4607 1.292-.3618l.001.0001c.08.0206.5.1281 1.193.6946.728.5942 1.521 1.5292 2.135 2.7982 1.194 2.4707 1.758 6.3252-.454 11.4792-3.356 7.8184-11.488 10.6804-16.854 10.1094-4.8191-.513-8.7856-3.739-10.854-6.1637-1.1287-1.323-2.9045-3.0395-4.1536-4.517-.8122-.9606-2.4156-3.2059-2.4156-3.2059z" fill="#e54a48"/><path d="m91.9305 87.287s1.1786 5.6421 1.9529 6.9407c1.2358 2.0728 3.1933 4.4272 6.1516 4.8947 3.967.627 6.406-1.6007 7.874-2.9421l.001-.0001c.077-.0709.152-.1393.224-.2046.818-.74 1.263-1.0866 1.671-1.2511.353-.1425 1.011-.1022 1.335.1295l.001.0002c.067.0481.419.3.862 1.0788.464.817.866 1.9753.979 3.3803.221 2.7357-.646 6.5327-4.57 10.5397-5.953 6.079-14.57 5.81-19.3673 3.339-4.3087-2.219-6.8418-6.661-7.8947-9.669-.5745-1.641-1.6103-3.8832-2.2414-5.7121-.4103-1.1892-1.0944-3.862-1.0944-3.862s-.4394 6.5811.906 10.4251c1.1634 3.323 4.0156 8.464 9.1456 11.107 5.5965 2.882 15.4922 3.213 22.3852-3.826 8.809-8.995 4.714-18.0638 1.808-19.2184-2.68-1.0651-4.191.3053-5.797 1.7614-1.509 1.3682-3.101 2.8121-5.825 2.3816-2.8656-.4528-4.1105-4.0259-6.3268-7.0434-.3134-.8334-2.1797-2.2492-2.1797-2.2492z" fill="#6e3c23"/><path d="m91.9305 87.287s1.1786 5.6421 1.9529 6.9407c1.2358 2.0728 3.1933 4.4272 6.1516 4.8947 3.967.627 6.406-1.6007 7.874-2.9421l.001-.0001c.077-.0709.152-.1393.224-.2046.818-.74 1.263-1.0866 1.671-1.2511.352-.1425 1.011-.1022 1.335.1295l.001.0002c.067.0481.419.3.862 1.0788.464.817.866 1.9753.979 3.3803.221 2.7357-.646 6.5327-4.57 10.5397-5.953 6.079-14.57 5.81-19.3673 3.339-4.3087-2.219-6.8418-6.661-7.8947-9.669-.5745-1.641-1.6104-3.8832-2.2414-5.7121-.4104-1.1892-1.0944-3.862-1.0944-3.862z" fill="#e54a48"/><path d="m79.2329 92.2829s.2883 5.7566.8516 7.1597c.8989 2.2394 2.4672 4.8694 5.3169 5.7904 3.8219 1.235 6.5769-.587 8.2359-1.684h.0001c.0876-.058.1722-.114.2538-.167.9228-.604 1.4163-.877 1.8444-.977.3706-.086 1.0151.056 1.2994.336h.0002c.059.058.3681.361.6841 1.199.3315.88.5486 2.086.4427 3.492-.2062 2.736-1.6522 6.354-6.151 9.703-6.8249 5.08-15.2956 3.477-19.651.291-3.9118-2.862-5.7246-7.643-6.2977-10.778-.3128-1.71-.9879-4.086-1.3274-5.991-.2207-1.2382-.4814-3.9848-.4814-3.9848s-1.456 6.4338-.7237 10.4388c.6333 3.464 2.6527 8.985 7.3103 12.393 5.0809 3.716 14.8051 5.579 22.7081-.304 10.0988-7.518 7.4608-17.113 4.77-18.705-2.4823-1.468-4.1881-.349-6.0005.84-1.7031 1.118-3.5004 2.297-6.1245 1.448-2.7603-.892-3.4353-4.6148-5.1562-7.9398-.1802-.8719-1.8041-2.5603-1.8041-2.5603z" fill="#6e3c23"/><path d="m79.2329 92.2829s.2883 5.7566.8516 7.1597c.8989 2.2394 2.4672 4.8694 5.3169 5.7904 3.8219 1.235 6.5769-.587 8.2359-1.684h.0001c.0876-.058.1722-.114.2538-.167.9228-.604 1.4163-.877 1.8444-.977.3706-.086 1.0151.056 1.2993.336h.0003c.059.058.3681.361.6841 1.199.3315.88.5486 2.086.4427 3.492-.2062 2.736-1.6522 6.354-6.151 9.703-6.8249 5.08-15.2956 3.477-19.651.291-3.9118-2.862-5.7246-7.643-6.2978-10.778-.3127-1.71-.9878-4.086-1.3273-5.991-.2207-1.2382-.4815-3.9848-.4815-3.9848z" fill="#e54a48"/></g></svg>