<svg fill="none" xmlns="http://www.w3.org/2000/svg" viewBox="0 0 128 128">
  <g clip-path="url(#clip0)">
    <circle cx="63.2947" cy="56.5664" r="52.5818" fill="#6E3C23" stroke="#6E3C23" stroke-width="2.57814"/>
    <ellipse cx="63.2949" cy="54.3302" rx="51.4846" ry="49.4252" fill="#E54A48"/>
    <path d="M101.237 14.3849c-2.3195-4.0042-5.114-5.95599-9.9747-7.13025-1.25-.30199-2.5697-.08103-3.6771.57275-4.6761 2.7606-7.2796 5.305-8.69 10.8291-.4951 1.9394.3369 3.9438 1.9075 5.1846l1.66 1.3114c2.3805 1.8806 5.7536 1.3928 8.1528-.4639 2.602-2.0137 5.0284-2.7651 7.7707-3.6144l.0563-.0175c2.8655-.8876 4.2985-4.0756 2.7945-6.6718z" fill="#fff" stroke="#6E3C23" stroke-width="2.08609" stroke-linecap="round" stroke-linejoin="round"/>
    <path d="M64.4142 15.4781c1.8445-3.0343 4.0801-4.6151 7.7454-5.60308 1.2807-.3452 2.6496-.11158 3.7766.58778 3.6432 2.2609 5.7303 4.4258 6.888 8.8748.4918 1.8901-.3185 3.8444-1.8308 5.0802l-.3574.2921c-2.4048 1.9652-5.8552 1.4162-8.4073-.3534-1.6863-1.1694-3.3148-1.7553-5.0815-2.3228-2.8195-.9056-4.2712-4.0251-2.733-6.5556z" fill="#fff" stroke="#6E3C23" stroke-width="2.08609" stroke-linecap="round" stroke-linejoin="round"/>
    <path d="M71.8302 17.4513c4.6694 4.003 8.2471 4.3427 11.1852 11.74M91.7518 15.5983c-4.6694 4.003-8.247 4.3427-11.1851 11.74" stroke="#CBCDD6" stroke-width="2.08609" stroke-linecap="round" stroke-linejoin="round"/>
    <path d="M14.6191 48.2218C50.1333 35.0234 69.9782 31.0922 105.248 30.606" stroke="#6E3C23" stroke-width="14.6026" stroke-linecap="round"/>
    <g filter="url(#filter0_i)">
      <path d="M14.6191 48.2218C50.1333 35.0234 69.9782 31.0922 105.248 30.606" stroke="#fff" stroke-width="8.80794" stroke-linecap="round"/>
    </g>
    <path d="M23.659 39.4138l-1.8543 11.3576M37.7982 34.7781l-1.8544 11.3576M53.5599 31.0696L51.7056 41.5M69.3211 28.52l-1.8543 9.9669M99.6856 26.2019l-1.8543 9.2715" stroke="#6E3C23" stroke-width="2.54967" stroke-linecap="round"/>
    <ellipse cx="37.6729" cy="61.94" rx="8.54494" ry="8.54129" fill="#6E3C23"/>
    <path fill-rule="evenodd" clip-rule="evenodd" d="M51.8547 70.8932c.8175-.5179 1.8999-.2766 2.4199.5386.0004.0006.0012.0018.0022.0034.0035.0054.0107.0162.0213.0322.0214.0319.057.0841.1065.1537.0991.1394.2532.3474.4599.6013.4151.5099 1.032 1.1922 1.8299 1.8719 1.6091 1.3709 3.8359 2.6353 6.5679 2.6353 2.732 0 4.9588-1.2644 6.5679-2.6353.7979-.6797 1.4148-1.362 1.8299-1.8719.2067-.2539.3608-.4619.4599-.6013.0495-.0696.0851-.1218.1065-.1537.0106-.016.0178-.0268.0213-.0322.0009-.0015.0016-.0025.002-.0032.52-.8154 1.6025-1.0568 2.4201-.5388.8189.5189 1.0619 1.603.5429 2.4215l-1.4827-.9394c1.4827.9394 1.4823.94 1.4819.9406l-.0008.0013-.002.0031-.005.0079c-.0038.0059-.0086.0134-.0144.0222-.0116.0178-.027.0412-.0463.07-.0386.0576-.0927.1367-.162.2341-.1385.1947-.3385.464-.5981.7828-.5173.6355-1.281 1.4805-2.2758 2.328-1.9763 1.6836-4.9834 3.4737-8.8453 3.4737-3.8619 0-6.869-1.7901-8.8453-3.4737-.9948-.8475-1.7585-1.6925-2.2758-2.328-.2596-.3188-.4596-.5881-.5981-.7828-.0693-.0974-.1234-.1765-.162-.2341-.0193-.0288-.0347-.0522-.0463-.07-.0058-.0088-.0106-.0163-.0144-.0222l-.005-.0079-.002-.0031-.0008-.0013c-.0004-.0006-.0008-.0012 1.4819-.9406l-1.4827.9394c-.519-.8185-.276-1.9026.5429-2.4215z" fill="#6E3C23"/>
    <ellipse cx="88.8015" cy="61.94" rx="8.54494" ry="8.54129" fill="#6E3C23"/>
    <path d="M42.1865 75.0027l-2.748 4.2683M36.4407 75.0027l-2.7481 4.2683M87.4041 74.8132l2.748 4.2683M93.1499 74.8132l2.748 4.2683" stroke="#fff" stroke-width="2.25026" stroke-linecap="round"/>
    <path d="M110.75 86.4315c-3.614.7811-7.668-3.5479-10.372-6.9504-4.2142 3.9911-12.8518 13.4351-12.8518 13.4351s2.5775 5.871 5.2954 9.0568c2.3501 2.755 6.9948 6.625 12.8954 7.253 6.438.685 16.049-2.674 20.045-11.9849 5.105-11.8969-2.191-19.0721-5.406-19.0999-5.752-.0499-3.884 7.0536-9.606 8.2903z" fill="#E54A48"/>
    <path fill-rule="evenodd" clip-rule="evenodd" d="M88.0798 92.3127c.0673-.0729-.072.0779 0 0 .8721-.944 3.6521-3.9352 4.9889-5.3585 1.9163-2.0403 4.2524-4.4408 6.0725-6.2736 1.0238 1.1378 3.2258 4.9724 4.4508 5.93 1.955 1.5285 4.707 3.059 7.717 2.4084 4.037-.8726 5.548-3.9147 6.458-5.7465.048-.0968.095-.1903.14-.2799.509-1.0134.807-1.5111 1.137-1.8202.191-.1796.482-.3911 1.289-.3841-.006-.0001-.002.0009.01.0041.082.0209.543.1391 1.257.7224.749.6111 1.564 1.5725 2.195 2.8775 1.229 2.5407 1.808 6.5046-.466 11.8046-3.451 8.0401-11.814 10.9841-17.332 10.3961-4.956-.528-9.0347-3.845-11.1617-6.339-1.1607-1.36-2.9869-3.1252-4.2714-4.6446-.8352-.9878-2.2538-2.8255-2.4841-3.2967zm13.9872-10.285c3.246 2.0701 5.767 5.0339 8.683 4.4037 2.772-.5992 3.763-2.5752 4.701-4.4478.999-1.9928 1.939-3.8683 4.905-3.8426 3.215.0279 10.511 7.203 5.405 19.0999-3.995 9.3111-13.607 12.6701-20.044 11.9851-5.9008-.629-10.5455-4.499-12.8957-7.253-2.7179-3.186-4.7415-9.6603-4.7415-9.6603s5.924-6.4793 10.3968-10.9695c.692-.6947.1-.1278.6646-.6626.5224.6571 2.3158.6643 2.9258 1.3471z" fill="#6E3C23"/>
    <path d="M101.057 98.8166c-3.5451-1.0504-5.0221-6.7944-5.7606-11.0778-5.6128 1.477-17.7244 5.6127-17.7244 5.6127s-.5587 6.3874.2954 10.4865c.7385 3.545 2.954 9.17 7.8283 12.555 5.3173 3.693 15.3613 5.362 23.3373-.886 10.191-7.983 7.237-17.7809 4.431-19.3491-5.022-2.8064-6.794 4.3221-12.407 2.6587z" fill="#E54A48"/>
    <path fill-rule="evenodd" clip-rule="evenodd" d="M78.348 93.0881c.0941-.0316-.1006.0338 0 0 1.2183-.4091 5.0932-1.6978 6.9493-2.3043 2.6607-.8693 5.8626-1.853 8.3392-2.5865.3515 1.4895.4419 5.9107 1.0564 7.3389.9807 2.2796 2.6594 4.9438 5.6121 5.8188 3.96 1.173 6.747-.77 8.424-1.9394.089-.0618.175-.1215.257-.1785.934-.6442 1.434-.9377 1.872-1.0505.254-.0656.61-.1116 1.315.282-.005-.0026-.002-.0001.007.0087.062.0576.409.3827.756 1.2374.363.8953.616 2.1303.543 3.5783-.143 2.818-1.538 6.573-6.078 10.13-6.888 5.395-15.6368 3.961-20.1948.796-4.0938-2.843-6.0783-7.712-6.7466-10.921-.3648-1.75-1.1189-4.1757-1.516-6.1252-.2582-1.2676-.6199-3.5607-.5956-4.0847zm17.2079-2.3043c1.8531 3.3747 2.6412 7.1852 5.5011 8.0326 2.719.8057 4.537-.4519 6.26-1.6436 1.833-1.2682 3.558-2.4618 6.147-1.015 2.807 1.5682 5.761 11.3662-4.431 19.3492-7.976 6.248-18.0195 4.579-23.3369.886-4.8742-3.385-7.0897-9.01-7.8283-12.555-.854-4.0992.4802-10.7499.4802-10.7499s8.3077-2.8383 14.3873-4.6288c.9407-.2771.1491-.0641.9012-.262.1427.8272 1.7121 1.6947 1.9194 2.5865z" fill="#6E3C23"/>
    <path d="M86.6281 102.92c-3.5449-1.05-5.0219-6.7943-5.7604-11.0777-5.6128 1.477-17.7245 5.6127-17.7245 5.6127s-.5586 6.387.2954 10.487c.7386 3.545 2.9541 9.17 7.8283 12.555 5.3174 3.692 15.3612 5.361 23.3372-.886 10.1919-7.984 7.2379-17.781 4.4311-19.35-5.0219-2.806-6.7943 4.322-12.4071 2.659z" fill="#E54A48"/>
    <path fill-rule="evenodd" clip-rule="evenodd" d="M63.9198 97.1914c.094-.0316-.1006.0338 0 0 1.2183-.4092 5.0932-1.6978 6.9493-2.3043 2.6606-.8693 5.8625-1.8531 8.3392-2.5866.3514 1.4896.4419 5.9108 1.0563 7.339.9808 2.2795 2.6595 4.9435 5.6124 5.8185 3.9602 1.173 6.7464-.769 8.4242-1.939.0887-.062.1743-.122.2568-.179.9335-.644 1.4339-.937 1.8715-1.05.2542-.066.6104-.112 1.315.282-.0048-.003-.0021 0 .0073.009.0616.057.4093.382.7558 1.237.363.895.6167 2.13.5433 3.578-.1428 2.818-1.538 6.574-6.0783 10.13-6.8879 5.396-15.6366 3.961-20.1946.796-4.0938-2.843-6.0783-7.712-6.7467-10.92-.3647-1.751-1.1188-4.176-1.5159-6.126-.2582-1.268-.62-3.5607-.5956-4.0846zm17.2079-2.3043c1.8531 3.3747 2.6411 7.1849 5.5014 8.0329 2.7191.805 4.5369-.452 6.2596-1.644 1.8331-1.268 3.5585-2.4618 6.1475-1.015 2.8068 1.568 5.7608 11.366-4.4311 19.349-7.976 6.248-18.0199 4.579-23.3372.886-4.8742-3.384-7.0898-9.009-7.8283-12.554-.8541-4.1.4802-10.7506.4802-10.7506s8.3077-2.8383 14.3873-4.6289c.9407-.277.1491-.064.9012-.262.1426.8273 1.7121 1.6947 1.9194 2.5866z" fill="#6E3C23"/>
    <path d="M17.2505 86.4318c3.6137.7811 7.6678-3.5479 10.3726-6.9504 4.2139 3.991 12.8514 13.4351 12.8514 13.4351s-2.5774 5.8709-5.2953 9.0565c-2.3502 2.755-6.9949 6.625-12.8958 7.253-6.4374.685-16.04879-2.674-20.04439-11.9847-5.1055-11.8969 2.19076-19.072 5.40548-19.0999 5.75261-.0499 3.88421 7.0536 9.60601 8.2904z" fill="#E54A48"/>
    <path fill-rule="evenodd" clip-rule="evenodd" d="M39.92 92.3124c-.0674-.0729.072.078 0 0-.8722-.9439-3.6522-3.9351-4.989-5.3585-1.9163-2.0402-4.2523-4.4408-6.0725-6.2735-1.0236 1.1378-3.2261 4.9723-4.451 5.93-1.955 1.5285-4.7067 3.059-7.717 2.4083-4.0372-.8726-5.5481-3.9146-6.458-5.7465-.0481-.0968-.0945-.1902-.1395-.2798-.50941-1.0134-.80742-1.5111-1.13704-1.8202-.19149-.1796-.48186-.3911-1.28896-.3842.00555 0 .0019.0009-.0105.0041-.08166.0209-.54282.1392-1.25716.7224-.74844.6111-1.56406 1.5726-2.1949 2.8775-1.22823 2.5408-1.80781 6.5046.46667 11.8046C8.12162 104.237 16.4843 107.18 22.0024 106.593c4.9561-.528 9.0351-3.846 11.162-6.339 1.1607-1.3602 2.9869-3.1255 4.2715-4.6448.8352-.9879 2.2538-2.8255 2.4841-3.2968zm-13.9872-10.285c-3.2461 2.0701-5.7672 5.034-8.683 4.4037-2.772-.5991-3.7625-2.5752-4.7012-4.4478-.9989-1.9927-1.9391-3.8683-4.90482-3.8426-3.21471.0279-10.51098 7.2031-5.40548 19.1 3.99561 9.3103 13.607 12.6703 20.0444 11.9843 5.9009-.628 10.5456-4.498 12.8958-7.253 2.7178-3.1852 4.7415-9.6596 4.7415-9.6596s-5.924-6.4793-10.3968-10.9694c-.6921-.6948-.1-.1279-.6647-.6626-.5223.6571-2.3155.6643-2.9257 1.347z" fill="#6E3C23"/>
    <path d="M26.9432 98.8163c3.5449-1.0503 5.0219-6.7944 5.7604-11.0778 5.6128 1.4771 17.7244 5.6128 17.7244 5.6128s.5587 6.3874-.2954 10.4867c-.7385 3.545-2.954 9.17-7.8283 12.555-5.3173 3.693-15.3611 5.362-23.3371-.886-10.19159-7.984-7.2375-17.7811-4.4312-19.3494 5.022-2.8063 6.7944 4.3214 12.4072 2.6587z" fill="#E54A48"/>
    <path fill-rule="evenodd" clip-rule="evenodd" d="M49.6523 93.0879c-.0941-.0317.1005.0338 0 0-1.2183-.4092-5.0933-1.6978-6.9494-2.3043-2.6606-.8693-5.8625-1.8531-8.3392-2.5866-.3514 1.4896-.4418 5.9108-1.0563 7.339-.9808 2.2796-2.6594 4.944-5.6124 5.818-3.9602 1.174-6.7464-.769-8.4242-1.9386-.0887-.0619-.1743-.1216-.2568-.1785-.9335-.6443-1.4339-.9377-1.8714-1.0506-.2542-.0655-.6105-.1116-1.3151.2821.0048-.0027.0021-.0001-.0073.0086-.0615.0576-.4093.3828-.7557 1.2374-.3631.8956-.6167 2.1306-.5434 3.5776.1428 2.819 1.5381 6.574 6.0784 10.131 6.8878 5.395 15.6365 3.961 20.1946.795 4.0938-2.842 6.0782-7.712 6.7466-10.92.3647-1.751 1.1188-4.1759 1.5159-6.1255.2582-1.2676.62-3.5607.5957-4.0846zm-17.2079-2.3043c-1.8532 3.3747-2.6412 7.1851-5.5015 8.0326-2.7191.8057-4.5369-.4519-6.2595-1.6437-1.8332-1.2682-3.5586-2.4618-6.1476-1.015-2.8064 1.5683-5.76044 11.3655 4.4311 19.3495 7.976 6.248 18.0199 4.579 23.3372.886 4.8742-3.385 7.0898-9.01 7.8283-12.555.8541-4.0994-.4801-10.7501-.4801-10.7501s-8.3078-2.8384-14.3874-4.6289c-.9407-.277-.1491-.0641-.9012-.262-.1426.8273-1.712 1.6947-1.9193 2.5866z" fill="#6E3C23"/>
    <path d="M41.3711 102.92c3.5449-1.051 5.022-6.7945 5.7605-11.078 5.6127 1.4771 17.7244 5.6128 17.7244 5.6128s.5587 6.3872-.2954 10.4872c-.7385 3.545-2.954 9.17-7.8283 12.555-5.3173 3.692-15.3612 5.361-23.3372-.887-10.1915-7.983-7.2374-17.781-4.4311-19.349 5.022-2.8062 6.7944 4.322 12.4071 2.659z" fill="#E54A48"/>
    <path fill-rule="evenodd" clip-rule="evenodd" d="M64.0805 97.1914c-.0941-.0316.1006.0338 0 0-1.2183-.4092-5.0932-1.6978-6.9494-2.3043-2.6606-.8693-5.8625-1.8531-8.3392-2.5866-.3514 1.4896-.4418 5.9108-1.0563 7.339-.9808 2.2795-2.6594 4.9435-5.6124 5.8185-3.9602 1.173-6.7464-.769-8.4242-1.939-.0887-.062-.1743-.122-.2568-.179-.9334-.644-1.4338-.937-1.8714-1.05-.2542-.066-.6105-.112-1.3151.282.0049-.003.0021 0-.0072.009-.0616.057-.4093.382-.7558 1.237-.363.895-.6167 2.13-.5434 3.578.1429 2.818 1.5381 6.574 6.0784 10.13 6.8879 5.396 15.6365 3.961 20.1946.796 4.0938-2.843 6.0782-7.712 6.7466-10.92.3647-1.751 1.1188-4.176 1.5159-6.126.2582-1.268.62-3.5607.5957-4.0846zm-17.2079-2.3043c-1.8532 3.3747-2.6412 7.1849-5.5015 8.0329-2.7191.805-4.5369-.452-6.2595-1.644-1.8332-1.268-3.5586-2.4618-6.1476-1.015-2.8063 1.568-5.7604 11.366 4.4311 19.349 7.976 6.248 18.0199 4.579 23.3372.886 4.8743-3.384 7.0898-9.009 7.8283-12.554.8541-4.1-.4801-10.7506-.4801-10.7506s-8.3078-2.8383-14.3874-4.6289c-.9406-.277-.1491-.064-.9012-.262-.1426.8273-1.712 1.6947-1.9193 2.5866z" fill="#6E3C23"/>
    <g filter="url(#filter1_i)">
      <rect x="75.2742" y="23.4048" width="14.8344" height="17.6159" rx="3.9404" transform="rotate(-6.65 75.2742 23.4048)" fill="#fff"/>
    </g>
    <rect x="73.9888" y="22.3878" width="17.1523" height="19.9338" rx="5.09933" transform="rotate(-6.65 73.9888 22.3878)" stroke="#6E3C23" stroke-width="2.31788"/>
  </g>
  <defs>
    <filter id="filter0_i" x="10.2139" y="26.2019" width="99.4382" height="26.425" filterUnits="userSpaceOnUse" color-interpolation-filters="sRGB">
      <feFlood flood-opacity="0" result="BackgroundImageFix"/>
      <feBlend in="SourceGraphic" in2="BackgroundImageFix" result="shape"/>
      <feColorMatrix in="SourceAlpha" values="0 0 0 0 0 0 0 0 0 0 0 0 0 0 0 0 0 0 127 0" result="hardAlpha"/>
      <feOffset dy="-2.38263"/>
      <feComposite in2="hardAlpha" operator="arithmetic" k2="-1" k3="1"/>
      <feColorMatrix values="0 0 0 0 0.796078 0 0 0 0 0.803922 0 0 0 0 0.839216 0 0 0 1 0"/>
      <feBlend in2="shape" result="effect1_innerShadow"/>
    </filter>
    <filter id="filter1_i" x="72.7036" y="19.1165" width="21.9157" height="24.3564" filterUnits="userSpaceOnUse" color-interpolation-filters="sRGB">
      <feFlood flood-opacity="0" result="BackgroundImageFix"/>
      <feBlend in="SourceGraphic" in2="BackgroundImageFix" result="shape"/>
      <feColorMatrix in="SourceAlpha" values="0 0 0 0 0 0 0 0 0 0 0 0 0 0 0 0 0 0 127 0" result="hardAlpha"/>
      <feOffset dx="-1.15894" dy="-6.25827"/>
      <feComposite in2="hardAlpha" operator="arithmetic" k2="-1" k3="1"/>
      <feColorMatrix values="0 0 0 0 0.796078 0 0 0 0 0.804243 0 0 0 0 0.839216 0 0 0 1 0"/>
      <feBlend in2="shape" result="effect1_innerShadow"/>
    </filter>
    <clipPath id="clip0">
      <path fill="#fff" d="M0 0h128v128H0z"/>
    </clipPath>
  </defs>
</svg>
